<svg width="32" height="32" viewBox="0 0 32 32" fill="none" xmlns="http://www.w3.org/2000/svg">
  <circle cx="16" cy="16" r="12" fill="#FF4500"/>
  <path d="M24 16C24 14.9 23.1 14 22 14C21.4 14 20.9 14.2 20.5 14.6C19.1 13.6 17.2 13 15.1 12.9L16.2 9L19.4 9.8C19.4 10.5 20 11 20.7 11C21.4 11 22 10.4 22 9.7C22 9 21.4 8.4 20.7 8.4C20.2 8.4 19.8 8.7 19.6 9.1L16 8.2C15.8 8.1 15.6 8.3 15.5 8.5L14.2 12.9C12.1 13 10.3 13.6 8.9 14.6C8.5 14.2 8 14 7.4 14C6.3 14 5.4 14.9 5.4 16C5.4 16.7 5.8 17.4 6.3 17.7C6.3 17.9 6.2 18.1 6.2 18.3C6.2 21.4 10.5 23.8 15.7 23.8C20.9 23.8 25.2 21.4 25.2 18.3C25.2 18.1 25.2 17.9 25.1 17.7C25.7 17.3 26 16.7 26 16H24ZM10.5 17.3C10.5 16.6 11.1 16 11.8 16C12.5 16 13.1 16.6 13.1 17.3C13.1 18 12.5 18.6 11.8 18.6C11.1 18.6 10.5 18 10.5 17.3ZM19.9 20.7C18.9 21.7 16.8 21.8 15.7 21.8C14.6 21.8 12.5 21.7 11.5 20.7C11.3 20.5 11.3 20.2 11.5 20C11.7 19.8 12 19.8 12.2 20C12.9 20.7 14.5 20.9 15.7 20.9C16.9 20.9 18.5 20.7 19.2 20C19.4 19.8 19.7 19.8 19.9 20C20.1 20.2 20.1 20.5 19.9 20.7ZM19.6 18.6C18.9 18.6 18.3 18 18.3 17.3C18.3 16.6 18.9 16 19.6 16C20.3 16 20.9 16.6 20.9 17.3C20.9 18 20.3 18.6 19.6 18.6Z" fill="white"/>
</svg> 